<svg xmlns="http://www.w3.org/2000/svg" width="64" height="64" viewBox="0 0 64 64" fill="none">
  <defs>
    <linearGradient id="g" x1="8" y1="6" x2="56" y2="58" gradientUnits="userSpaceOnUse">
      <stop offset="0" stop-color="#F8E9B5"/>
      <stop offset="0.45" stop-color="#E3C05F"/>
      <stop offset="1" stop-color="#A8862A"/>
    </linearGradient>
    <radialGradient id="i" cx="0.5" cy="0.3" r="0.9">
      <stop offset="0" stop-color="#2A2410"/>
      <stop offset="1" stop-color="#0B0B13"/>
    </radialGradient>
  </defs>
  <rect x="2" y="2" width="60" height="60" rx="16" fill="url(#i)" stroke="url(#g)" stroke-width="2"/>
  <path d="M32 9 L50 16 V30 C50 42.5 42.5 50.5 32 55 C21.5 50.5 14 42.5 14 30 V16 Z" fill="rgba(212,175,55,0.10)" stroke="url(#g)" stroke-width="2.5" stroke-linejoin="round"/>
  <line x1="19" y1="25" x2="45" y2="25" stroke="url(#g)" stroke-width="2.4" stroke-linecap="round"/>
  <circle cx="19" cy="25" r="1.8" fill="#F8E9B5"/>
  <circle cx="45" cy="25" r="1.8" fill="#F8E9B5"/>
  <line x1="32" y1="20" x2="32" y2="44" stroke="url(#g)" stroke-width="2.4" stroke-linecap="round"/>
  <circle cx="32" cy="19" r="2.8" fill="#F8E9B5"/>
  <circle cx="32" cy="19" r="1.2" fill="#A8862A"/>
  <line x1="19" y1="25" x2="15" y2="33" stroke="url(#g)" stroke-width="1.6" stroke-linecap="round"/>
  <line x1="19" y1="25" x2="25" y2="33" stroke="url(#g)" stroke-width="1.6" stroke-linecap="round"/>
  <path d="M15 33 A5 3.2 0 0 0 25 33 Z" fill="rgba(212,175,55,0.4)" stroke="url(#g)" stroke-width="1.5" stroke-linejoin="round"/>
  <line x1="45" y1="25" x2="39" y2="33" stroke="url(#g)" stroke-width="1.6" stroke-linecap="round"/>
  <line x1="45" y1="25" x2="49" y2="33" stroke="url(#g)" stroke-width="1.6" stroke-linecap="round"/>
  <path d="M39 33 A5 3.2 0 0 0 49 33 Z" fill="rgba(212,175,55,0.4)" stroke="url(#g)" stroke-width="1.5" stroke-linejoin="round"/>
  <line x1="27" y1="44" x2="37" y2="44" stroke="url(#g)" stroke-width="2.2" stroke-linecap="round"/>
  <line x1="24" y1="47.5" x2="40" y2="47.5" stroke="url(#g)" stroke-width="2.2" stroke-linecap="round"/>
</svg>
